<?xml version="1.0" encoding="UTF-8"?>
<svg version="1.1" viewBox="0 0 2048 883" width="1280" height="552" xmlns="http://www.w3.org/2000/svg">
<path transform="translate(777,5)" d="m0 0h124l19 1 26 4 24 7 21 9 18 11 11 9 10 9 9 10 11 16 10 19 7 20 5 21 3 26v26l-2 22-6 29-1 5 10-13 9-14 10-18 8-16 8-18 3-9 1-11 1-144 2-1h123l24 1 19 3 13 4 16 8 11 8 10 9 9 12 8 15 6 19 2 12v30l-3 16-5 15-9 17-7 9-9 10-15 11-10 5 6 9 10 17 10 19 13 23 13 24 10 18 16 29 5 9v2h-72l-6-10-13-25-12-22-12-23-12-22-15-29-61-1v132h-58l-1 13-3 12 1 9v24l-4 15-7 13-5 7 2-1h12l9 3 5 5 2 5-1 8-4 4-2-1v-8l-4-5-7-1-10 5-7 8-5 13-2 9-1 9v15l4 33 3 22v29l-3 15-6 15-2 3-3 29-4 70v28l5 26v22l21 8 27 9 18 4 26 4 13 1h44l19-3 15-5 11-6 12-9 10-9 14-15 5-5v11l-5 14-7 11-11 13-14 11-13 8-16 8-25 9-12 3-16 2h-34l-27-4-26-7-25-9-31-13-40-18-31-13-25-9-22-6-17-3h-23l-18 3-29 8-28 10-30 14-25 13-12 4h-2l2-4 6-7 8-7 11-10 14-11 18-13 16-10 19-10 16-6 19-4 7-1 18-1h19l20 1 20 4 10 3 1-10 5-134 1-43 1-16 1-51 4-23 2-13 1-19-2-26v-10l2-21 4-20 8-27 10-27 6-14h-1l-7 6-10 7-15 9-18 8-15 5-23 5-15 2-14 1h-131v-353zm62 57v240l1 1h54l23-2 17-4 15-6 11-6 12-9 10-10 7-10 8-15 6-17 4-22 1-14v-11l-2-22-3-15-5-15-10-19-8-10-10-10-10-7-15-8-18-6-17-3zm342 0v102l2 7h54l18-2 11-4 10-6 9-10 5-11 3-12v-23l-4-15-7-11-11-8-9-4-14-3zm-118 190 1 2zm-42 395-7 64-5 44v11l6 17 10 5 25 10-2-12-3-21v-33l4-66v-7l-10-4z" fill="#EFD9C6"/>
<path transform="translate(398,401)" d="m0 0h24l25 3 24 6 18 7 16 8 16 10 13 11 8 7 9 9 11 14 9 14 9 17 8 21 5 21 2 13v44l-5 25-7 21-7 15-8 15-10 14 2 4 8 7 11 10 8 7 10 9-6 8-15 16-7 8-9 10-4-2-35-35-5 1-15 10-19 9-21 7-18 4-18 2h-29l-23-3-23-6-19-8-14-7-15-10-10-8-10-9-11-11-13-17-9-15-10-21-7-21-4-20-2-17v-27l3-23 5-20 7-19 12-23 10-14 9-11 15-15 17-13 13-8 16-8 15-6 18-5 22-4zm-2 61-19 4-15 6-15 8-10 8-10 9-10 12-9 15-7 16-5 19-2 14v22l3 20 5 17 5 12 8 15 11 14 12 12 14 10 16 8 15 5 19 3h16l19-3 16-5 18-9-2-4-20-20-8-7-8-8 12-13 7-8 15-16 2-3 4 2 35 35 3-3 7-14 6-18 3-15 1-8v-20l-3-20-5-17-8-17-8-12-9-11-7-7-15-11-15-8-18-6-16-3z" fill="#006F91"/>
<path transform="translate(1612,401)" d="m0 0h17l21 2 23 5 21 7 17 8 16 10 13 10 10 9 12 12 13 17 12 21 8 20 5 16 4 23 1 14v18l-2 21-4 20-5 17-10 23-9 15-10 14-12 13-13 13-16 12-21 12-20 8-21 6-18 3-11 1h-26l-24-3-20-5-19-7-23-12-14-10-14-12-11-11-11-14-10-15-9-17-8-21-6-25-2-17v-36l4-25 4-15 7-18 8-16 10-16 11-13 7-8 7-7 14-11 13-9 23-12 27-9 20-4zm-6 61-16 3-17 6-15 8-12 9-10 9-11 14-9 15-6 14-5 19-2 18v16l3 21 5 18 8 18 9 14 9 11 9 9 14 10 17 9 15 5 19 3h18l19-3 15-5 16-8 11-8 10-9 7-7 10-14 10-19 5-15 4-19 1-8v-24l-3-18-5-17-8-17-8-12-9-11-7-7-12-9-14-8-15-6-16-4-6-1z" fill="#006F91"/>
<path transform="translate(777,5)" d="m0 0h124l19 1 26 4 24 7 21 9 18 11 11 9 10 9 9 10 11 16 10 19 7 20 5 21 3 26v26l-2 22-6 29-6 15-19 29-9 15-6 8-9 9-13 9-15 9-18 8-15 5-23 5-15 2-14 1h-131v-353zm62 57v240l1 1h54l23-2 17-4 15-6 11-6 12-9 10-10 7-10 8-15 6-17 4-22 1-14v-11l-2-22-3-15-5-15-10-19-8-10-10-10-10-7-15-8-18-6-17-3z" fill="#00ABD0"/>
<path transform="translate(292,5)" d="m0 0h65v150h160v-149l1-1h63l1 4v349l-1 1h-64v-148h-160v147l-1 1h-64l-1-1v-352z" fill="#00ABD0"/>
<path transform="translate(626,407)" d="m0 0h57l8 1 1 237 3 16 4 11 5 9 6 8 10 8 16 8 16 4 9 1h17l19-3 13-5 12-7 8-7 7-10 6-12 4-18 1-240 12-1h42l12 1v242l-3 21-7 21-8 16-10 14-11 12-15 12-16 9-16 7-18 5-17 3-12 1h-23l-20-2-17-4-15-5-17-8-12-8-11-9-11-11-10-14-7-12-6-15-5-21-2-17v-237z" fill="#006F91"/>
<path transform="translate(1207,407)" d="m0 0h118l17 1 16 3 15 5 17 9 14 11 8 8 10 14 8 16 5 15 3 15 1 13v17l-3 20-4 15-7 16-6 10-7 9-9 10-13 10-17 9-15 5-14 3-11 1h-81l1 122-1 1h-65v-357zm46 57-1 1v120h68l15-3 16-8 10-10 6-11 4-12 1-8v-18l-2-12-5-12-9-12-11-8-9-4-9-2-9-1z" fill="#006E90"/>
<path transform="translate(1118,5)" d="m0 0h123l24 1 19 3 13 4 16 8 11 8 10 9 9 12 8 15 6 19 2 12v30l-3 16-5 15-9 17-7 9-9 10-15 11-10 5 6 9 10 17 10 19 13 23 13 24 10 18 16 29 5 9v2h-72l-6-10-13-25-12-22-12-23-12-22-15-29-61-1v132h-57l-1-1 1-13 4-28 6-29 9-32 6-18 6-11 11-12 12-8 3-5-2-13-1-5v-18l2-10h1l2 14h54l18-2 11-4 10-6 8-9 5-11 3-12v-23l-4-15-7-11-10-7-9-4-14-3-67-1v79l-6-6-5 1-10 11-7 9-3 1v-11l2-10v-9l-4-6-1-1h-6l-10 10-8 14-5 10-2 1v-149z" fill="#00ABD0"/>
<path transform="translate(10,407)" d="m0 0h195l9 1v56l-148 1v91l119 1v56l-119 1v94l156 1v56h-222v-357z" fill="#006F91"/>
<path transform="translate(1393,171)" d="m0 0 33 1 30 3 36 6 28 7 20 7 18 8 17 9 14 8 11 5 16 4 7 1h26l18-3 21-6 20-8 16-8 16-9 14-10 4-1-4 33-6 23-8 20-10 19-12 17-9 10-7 8-8 7-17 13-21 12-20 8-17 5-16 3-23 2h-11l-24-2-23-5-20-7-19-9-18-12-11-9-13-12-11-13-9-13-8-14-9-19-8-26-4-26v-26z" fill="#00ABD0"/>
<path transform="translate(1924,401)" d="m0 0h22l24 3 22 6 19 8 14 8 13 10 3 3-1 6-15 28-11 20-5-2-11-8-14-8-21-8-14-3-8-1h-13l-15 3-14 7-9 8-5 8-3 12v7l3 11 7 9 8 7 16 9 24 11 24 10 25 12 14 8 12 9 10 9 11 14 7 14 4 14 1 4v34l-4 17-7 16-8 12-9 10-8 8-15 10-18 8-19 5-16 2h-27l-18-2-21-5-22-8-19-10-16-11-14-12 2-5 10-13 12-17 11-15 4 2 15 11 15 9 15 7 21 6 7 1h24l12-3 12-6 8-8 6-12 1-6v-12l-4-11-7-9-10-8-18-10-31-14-25-11-24-13-15-11-12-11-9-12-7-14-4-14-1-6v-25l3-15 5-13 7-13 7-9 9-10 14-11 16-9 16-6 17-4z" fill="#006F91"/>
<path transform="translate(989,552)" d="m0 0 12 12v34l3 15 6 17 6 10 5 5v9l-10 94-1 7v11l6 17 33 14-5-32v-33l4-66 1-7 6-2 13-4 9-6 7-8h2l-1 18-2 24-3 55v28l5 26v22l21 8 27 9 18 4 26 4 13 1h44l19-3 15-5 11-6 12-9 10-9 14-15 5-5v11l-5 14-7 11-11 13-14 11-13 8-16 8-25 9-12 3-16 2h-34l-27-4-26-7-25-9-31-13-40-18-31-13-25-9-22-6-17-3h-23l-18 3-29 8-28 10-30 14-25 13-12 4h-2l2-4 6-7 8-7 11-10 14-11 18-13 16-10 19-10 16-6 19-4 7-1 18-1h19l20 1 20 4 10 3 1-10 5-134 1-43 2-30z" fill="#BDE0EB"/>
<path transform="translate(1549)" d="m0 0h51l27 6 18 6 16 7 17 10 12 9 13 11 10 10 11 14 9 14 9 17 7 18 6 25 2 22-6 4-31 14-26 10-5 1v-28l-3-20-5-17-8-17-8-12-12-14-14-11-16-9-16-6-19-4h-28l-19 4-18 7-16 10-15 13-11 14-9 15-7 18-5 18-18-1-48-3-1-2 5-24 7-20 10-21 10-15 8-10 9-10 10-10 13-10 16-10 16-8 15-6 13-4z" fill="#00ABD0"/>
<path transform="translate(646,5)" d="m0 0h64v354h-64l-1-1v-352z" fill="#00ABD0"/>
<path transform="translate(1106,451)" d="m0 0h12l9 3 5 5 2 5-1 8-4 4-2-1v-8l-4-5-7-1-10 5-7 8-5 13-2 9-1 9v15l4 33 3 22v29l-3 15-6 15-3 5-5 5-9 8-12 5-12 2-16-6-11-6-10-13-7-17-3-12-1-7v-25l2-11 5-18 9-17 9-20 7-12 9-11 7-7 8-2 3 1-1 3-5 2-1 8 8-4 14-11 7-7 17-12z" fill="#020102"/>
<path transform="translate(1066,375)" d="m0 0h25l12 2 12 5 3 3 2 8v24l-4 15-7 13-6 8-11 7-13 10-7 7-15 11-5 1v-6l7-7-9 1-8 7-9 11-8 14-13 28-5 10-5 18-7-6-5-6h-2v-37l4-23 2-13 1-19-1-14v-10l1-1 15-3 12-5 10-9 8-9 11-19 7-11 5-4z" fill="#BE223C"/>
<path transform="translate(989,552)" d="m0 0 12 12v34l3 15 6 17 6 10 5 5v9l-10 94-1 7v11l5 14-1 3-33-11-1-1 1-35 3-81 2-72 2-30z" fill="#EFD9C5"/>
<path transform="translate(1171,134)" d="m0 0 6 1 2 5-2 1-3 22v21l2 7v8l-9 6-9 7-10 12-7 12-7 19-11 46-7 24-8 18-8 11-8 9-11 8-4 3h-2l1-9 10-36 21-64 12-36 5-10 4-9 4-6 4-5 13-10h2l2-5v-8l-2-11v-8l7-8 8-10z" fill="#EFDAC7"/>
<path transform="translate(1084,639)" d="m0 0h2l-1 18-2 24-3 55v28l5 26v21l-3 1-25-10-7-4-4-18-2-15v-33l4-66 1-7 6-2 13-4 9-6z" fill="#EFD9C6"/>
<path transform="translate(1149,123)" d="m0 0h2l2 4v9l-2 10v11l3 19v8l-3 5-11 8-5 5-5 6-4 8-4 10-4 8-14 43-17 52-10 36-2 9 13-9 9-8 10-14 8-18 8-27 10-43 7-19 8-13 9-11 8-7 10-6v-8l-2-7v-21l3-22 4-1 1 1v15l-2 10v18l3 15-1 6-7 6-10 7-8 9-8 16-9 30-7 28-6 35-2 16-1 14-3 14-1 8-4-5-12-5-12-2h-25l-7 4-8 13-6 10-1-2 11-20 10-19 11-27 9-25 12-41 9-31 8-20 7-13 7-9 9-8 9-6 1-6-2-16v-9l3-26z" fill="#D0A581"/>
<path transform="translate(1045,458)" d="m0 0h11l14 4 9 6-2 4-10 9-12 8h-3v-6l7-7-9 1-8 7-9 11-8 14-13 28-4 7-2-1-2-15v-24l3-15 6-12 7-8 11-7 9-3z" fill="#EDD4BE"/>
<path transform="translate(1149,123)" d="m0 0h2l2 4v9l-2 10v11l3 19v8l-3 5-11 8-5 5-5 6-4 8-4 10-4 8-14 43-17 52-10 36-2 9 2 1-4-1 1-8 4-17 2-8 1-2-4-1v6h-2l-2 7-5 12-6 11-2 3-2-1 10-21 11-28 10-30 16-56 8-21 8-15 7-9 9-8 9-6 1-6-2-16v-9l3-26z" fill="#E5B68E"/>
<path transform="translate(1084,639)" d="m0 0h2l-1 18-2 24-3 55v28l5 26v21l-3 1-4-2-1-3-1-13-6-19-1-4v-39l4-56 2-27z" fill="#CFA480"/>
<path transform="translate(1011,634)" d="m0 0 4 4 6 7v9l-10 94-1 7v11l5 14-1 3-9-3-4-10v-14l10-114z" fill="#CFA480"/>
<path transform="translate(1076,650)" d="m0 0h1v9l-5 65-1 19v24l3 13 3 7 4 1-2-14-3-18 1-10 1-29 2-30 1-24 3-13h1l-1 16-4 70v28l5 26v21l-3 1-4-2-1-3-1-13-6-19-1-4v-39l4-56 2-25z" fill="#E6B891"/>
<path transform="translate(1012,638)" d="m0 0h1v14l-3 31-5 61-1 15 1 2 2-5 2-21 2-15 6-55 2-7h1l-1 15-8 75-1 7v11l5 14-1 3-9-3-4-10v-14l10-114z" fill="#E5B68E"/>
<path transform="translate(1077,338)" d="m0 0 4 1-3 15-4 16v4l2 2h-10l-7 4-8 13-6 10-1-2 11-20 3-4h2l2-4 6-13 4-9 4-8z" fill="#D0A581"/>
<path transform="translate(1099,755)" d="m0 0 7 1 2 3-1 4-4 5h-2l-9 18-2 5h-2l-1-7 3-16 5-9z" fill="#BDE1EC"/>
<path transform="translate(1019,658)" d="m0 0h1l-1 15-8 75-1 7h-2l1-20 2-15 6-55z" fill="#E7BC97"/>
<path transform="translate(1084,650)" d="m0 0h1l-1 16-4 70-1 10h-1v-29l2-30 1-24z" fill="#E7BB96"/>
<path transform="translate(942,739)" d="m0 0h6l5 7 2 6 1 11-3-1-6-12-6-6z" fill="#BDE1EC"/>
<path transform="translate(1177,140)" d="m0 0 4 1v15l-3 18h-1v-6h-2l1-17z" fill="#CFA480"/>
<path transform="translate(1149,123)" d="m0 0h2l2 4v9l-2 10v12l-1 6-2-1v-38z" fill="#D1A581"/>
<path transform="translate(1114,328)" d="m0 0 1 3-8 16-8 11-10 10h-2l-1 3-9 3 4-4 13-10 9-11 8-14z" fill="#E6B78F"/>
<path transform="translate(1176,141)" d="m0 0h1v10l-2 17h2v6l-2 8 1 9-2-3-1-4v-21z" fill="#E6B78F"/>
<path transform="translate(1076,338)" d="m0 0 1 3v3h-2l-2 7-5 12-6 11-2 3-2-1 10-21 6-15z" fill="#E6B78F"/>
<path transform="translate(1080,346)" d="m0 0 1 4-6 24 2 1-4-1 1-8 4-17z" fill="#E6B78F"/>
<path transform="translate(1078,746)" d="m0 0h1v20l-2-4-1-6 1-9z" fill="#E6B78F"/>
<path transform="translate(1127,219)" d="m0 0 2 1-1 5-2 3-3-1v-5z" fill="#00ABD0"/>
<path transform="translate(1024,466)" d="m0 0 2 1-12 12v-3l6-7z" fill="#E2BD9D"/>
</svg>
